Coordinates
version=1
nRows=30
nColumns=19
inDegrees=yes

Units are S.I. units (second, meters, Newtons, ...)
If the header above contains a line with 'inDegrees', this indicates whether rotational values are in degrees (yes) or radians (no).

endheader
time	pelvis_obliquity	pelvis_rotation	pelvis_tilt	pelvis_to_ground_tx	pelvis_to_ground_ty	pelvis_to_ground_tz	left_hip_abduction	left_hip_rotation	left_hip_flexion	left_knee_flexion	left_ankle_flexion	left_subtalar_angle	right_hip_abduction	right_hip_rotation	right_hip_flexion	right_knee_flexion	right_ankle_flexion	right_subtalar_angle
      4.42000000	     87.10634128	      7.30169546	    -12.70994462	      0.01422072	     -0.54803976	      0.60634387	      0.57102281	     -8.36127789	     33.29678096	    -41.77091953	    -16.79959877	    -13.89676147	      2.38277948	     14.65620033	     19.45469692	     -6.01490083	     -6.56969344	    -14.26537320
      4.43000000	     87.06350316	      6.51405651	    -12.56046760	      0.02278134	     -0.54845782	      0.60691814	      0.16920312	     -7.74582547	     35.16663823	    -42.15866060	    -16.64688486	    -14.02934327	      2.67641831	     15.00783817	     17.93038103	     -4.83113358	     -6.68111373	    -14.08237296
      4.44000000	     86.91362078	      5.71608532	    -12.38468753	      0.03140250	     -0.54882846	      0.60711550	     -0.03680625	     -7.28836808	     36.97909278	    -42.36014503	    -16.42484217	    -14.13587700	      3.07369325	     15.33155535	     16.43016054	     -3.77071855	     -6.88442536	    -13.88853842
      4.45000000	     86.67630152	      4.89435553	    -12.19182383	      0.04011605	     -0.54916240	      0.60696757	     -0.04860519	     -6.97509921	     38.68788293	    -42.31781829	    -16.23452471	    -14.17808509	      3.55144561	     15.62015182	     14.95316776	     -2.83048649	     -7.07358483	    -13.70931127
      4.46000000	     86.35310243	      4.06935487	    -11.98590702	      0.04898454	     -0.54950138	      0.60649527	      0.15164473	     -6.80991713	     40.25440113	    -42.00440815	    -16.07103028	    -14.16264029	      4.11777829	     15.89916378	     13.47824628	     -1.98637458	     -7.26547673	    -13.55515217
      4.47000000	     85.96363535	      3.22641448	    -11.78005823	      0.05804461	     -0.54986191	      0.60571460	      0.54323536	     -6.74660080	     41.65122349	    -41.40491467	    -15.99760593	    -14.13053810	      4.74623458	     16.15444455	     12.02995012	     -1.27442713	     -7.37419323	    -13.41746137
      4.48000000	     85.48643340	      2.42639582	    -11.62270022	      0.06728547	     -0.55027986	      0.60464674	      1.18816180	     -6.88858008	     42.89517168	    -40.51201911	    -16.00114247	    -14.11248759	      5.45703190	     16.34109653	     10.69105523	     -0.75187334	     -7.39937104	    -13.29960423
      4.49000000	     85.01742894	      1.57185801	    -11.34761407	      0.07686479	     -0.55070629	      0.60335787	      1.89772997	     -7.03272928	     43.72880450	    -39.28413559	    -16.05168948	    -14.12121617	      6.18034980	     16.67074355	      9.17074837	     -0.24170334	     -7.44694505	    -13.16266021
      4.50000000	     84.51078969	      0.77341105	    -11.12075585	      0.08670792	     -0.55121558	      0.60183110	      2.78631155	     -7.36097020	     44.34671554	    -37.80115238	    -16.16152995	    -14.18005889	      6.93257526	     16.90951860	      7.77189717	      0.05103770	     -7.48843472	    -13.08073457
      4.51000000	     83.99134212	      0.00997645	    -10.87373046	      0.09684095	     -0.55176912	      0.60010015	      3.78522763	     -7.83334755	     44.65697112	    -36.11218695	    -16.33648206	    -14.31688784	      7.69514726	     17.15447082	      6.41794238	      0.13697230	     -7.52362888	    -13.01230321
      4.52000000	     83.47771229	     -0.69494176	    -10.61484773	      0.10728861	     -0.55238083	      0.59818715	      4.85358011	     -8.45961092	     44.67869090	    -34.30440300	    -16.56412632	    -14.54925966	      8.44886466	     17.37999948	      5.13108417	      0.00985487	     -7.56977314	    -12.94513385
      4.53000000	     82.99145750	     -1.32518352	    -10.33644981	      0.11803039	     -0.55303713	      0.59612509	      5.93325145	     -9.23335831	     44.43118564	    -32.47684570	    -16.83423346	    -14.90616583	      9.16885093	     17.57515656	      3.93587443	     -0.35822571	     -7.65600728	    -12.86341356
      4.54000000	     82.55080382	     -1.86043825	    -10.12728761	      0.12902728	     -0.55371389	      0.59395481	      6.99934944	    -10.17197038	     44.05112039	    -30.74733822	    -17.27897650	    -15.73255004	      9.80695522	     17.76713524	      2.96755810	     -1.00263385	     -7.88950666	    -12.73629800
      4.55000000	     82.29145476	     -2.32663613	     -9.97582758	      0.14028280	     -0.55434674	      0.59177516	      7.83766929	    -11.19761957	     43.52562245	    -29.13217652	    -17.29924870	    -15.81378533	     10.20407845	     17.93739030	      2.25482275	     -1.95289276	     -7.97756761	    -12.65501292
      4.56000000	     82.02163461	     -2.63070766	     -9.56538656	      0.15175688	     -0.55505354	      0.58948592	      8.49596813	    -12.16351622	     42.68799065	    -27.93844228	    -17.37118969	    -16.27949466	     10.67772597	     17.85192851	      1.47566130	     -3.21387926	     -8.34584959	    -12.41142123
      4.57000000	     81.98092487	     -2.80398786	     -9.36128514	      0.16334724	     -0.55564688	      0.58730641	      8.88718063	    -13.24466360	     41.95162074	    -26.99273861	    -17.30895624	    -16.70430767	     10.82272606	     17.78669785	      1.15814382	     -4.76487552	     -8.82220269	    -12.12799330
      4.58000000	     82.14190246	     -2.87855037	     -9.20189538	      0.17502641	     -0.55612665	      0.58525826	      8.91515524	    -14.19744163	     41.19304351	    -26.36713555	    -17.11301769	    -17.17115149	     10.71417138	     17.70755600	      1.13437793	     -6.60320472	     -9.48837620	    -11.65706978
      4.59000000	     82.47942363	     -2.72617801	     -9.05649349	      0.18671176	     -0.55651871	      0.58335961	      8.67373670	    -15.21076986	     40.41868692	    -26.03721903	    -16.82632808	    -17.27725736	     10.40355382	     17.42846983	      1.38856106	     -8.70526439	    -10.11663884	    -11.41241465
      4.60000000	     83.03991542	     -2.43180561	     -8.95675125	      0.19837081	     -0.55674177	      0.58168832	      8.07974713	    -16.09220015	     39.62697060	    -25.90784803	    -16.37936166	    -17.30262713	      9.80087294	     16.98012240	      1.96080453	    -11.07754713	    -10.97147676	    -11.00026304
      4.61000000	     83.81081104	     -1.99325648	     -8.95328202	      0.20995517	     -0.55677197	      0.58031947	      7.20877854	    -16.87348700	     38.84101071	    -25.85128718	    -15.62601833	    -17.09246344	      8.93731474	     16.46734837	      2.83995523	    -13.61305904	    -12.11636965	    -10.08104729
      4.62000000	     84.76847850	     -1.36637361	     -8.97207607	      0.22140496	     -0.55661003	      0.57925309	      6.11218947	    -17.63260193	     37.97709916	    -25.77723752	    -14.95020312	    -16.63180259	      7.83387461	     15.68148051	      3.97156486	    -16.34846494	    -13.11364942	     -9.44603016
      4.63000000	     85.85748594	     -0.55915044	     -8.96720999	      0.23268876	     -0.55625614	      0.57850211	      4.84805814	    -18.34319557	     36.97464878	    -25.61702485	    -14.49794463	    -16.25517402	      6.56765358	     14.62005728	      5.26128855	    -19.23548028	    -13.91906565	     -9.22696999
      4.64000000	     87.10215067	      0.32683284	     -9.20046197	      0.24377365	     -0.55562710	      0.57821624	      3.50717182	    -19.01819091	     36.03498998	    -25.17960440	    -13.67690151	    -15.29179250	      5.07985579	     13.60926474	      6.89018505	    -22.13164563	    -15.05748937	     -8.23282475
      4.65000000	     88.38692768	      1.35932892	     -9.38381919	      0.25464505	     -0.55481889	      0.57827969	      2.11873084	    -19.67039429	     34.89545453	    -24.51855935	    -13.08097105	    -14.35269942	      3.53929054	     12.32750219	      8.57753813	    -25.10185219	    -15.78666182	     -7.76711841
      4.66000000	     89.65413314	      2.45699303	     -9.60141991	      0.26528023	     -0.55380982	      0.57872087	      0.73975488	    -20.17689278	     33.64904686	    -23.61737575	    -12.55600355	    -13.29283705	      1.99111844	     10.95053088	     10.37022053	    -28.07894299	    -16.34398748	     -7.38245231
      4.67000000	     90.91586015	      3.62129242	     -9.92432036	      0.27568617	     -0.55260069	      0.57961279	     -0.52369032	    -20.87604786	     32.30547315	    -22.34470332	    -12.25658526	    -12.54416456	      0.44572383	      9.61668945	     12.27818503	    -30.95235234	    -16.63984105	     -7.33954547
      4.68000000	     92.04847593	      4.80199560	    -10.23966286	      0.28583681	     -0.55124859	      0.58080242	     -1.70287955	    -21.38411200	     30.87108944	    -20.91720923	    -12.03630698	    -11.57319968	     -0.99042865	      8.20703562	     14.23800157	    -33.78415945	    -16.66192578	     -7.32387317
      4.69000000	     93.05570741	      5.99375993	    -10.54086376	      0.29576524	     -0.54977374	      0.58233002	     -2.72771930	    -22.00320226	     29.28268195	    -19.23947360	    -11.90249975	    -11.18902699	     -2.29412229	      6.85786351	     16.19788090	    -36.47393129	    -16.63978136	     -7.61520985
      4.70000000	     93.89780720	      7.14906254	    -10.85147571	      0.30544946	     -0.54822154	      0.58411515	     -3.59418966	    -22.58842198	     27.63607720	    -17.41813975	    -11.88409689	    -10.72990515	     -3.44353516	      5.59096659	     18.21977324	    -39.03029626	    -16.35866705	     -7.98518147
      4.71000000	     94.55860272	      8.22019698	    -11.18896994	      0.31489053	     -0.54663843	      0.58608872	     -4.30151988	    -23.02140875	     26.00513182	    -15.52863607	    -12.20396782	    -10.11423905	     -4.43066960	      4.46680250	     20.34130524	    -41.42779820	    -15.31691659	     -8.63065547
